<svg width="24" height="24" viewBox="0 0 24 24" fill="none" xmlns="http://www.w3.org/2000/svg">
    <path fill-rule="evenodd" clip-rule="evenodd" d="M19.5854 2.69137L21.308 4.41392C22.2298 5.33575 22.2298 6.82785 21.308 7.74576L19.3549 9.69878L14.3005 4.64438L16.2536 2.69137C17.1754 1.76954 18.6636 1.76954 19.5854 2.69137ZM18.355 10.6671L18.3667 10.6789C18.3667 10.6789 12.3632 16.6785 9.54302 19.5065C8.98836 20.065 8.35559 20.4635 7.60172 20.6783C7.36717 20.7454 7.13251 20.8124 6.89779 20.8794C5.69803 21.222 4.49688 21.565 3.30119 21.9243C2.9184 22.0415 2.58248 22.0259 2.28562 21.7446C1.96923 21.4478 1.9458 21.0923 2.06688 20.69C2.23118 20.1428 2.38922 19.593 2.54728 19.0431C2.82136 18.0895 3.09556 17.1356 3.40274 16.1942C3.5668 15.6864 3.84803 15.163 4.2152 14.788C7.17597 11.7647 13.3162 5.62447 13.3162 5.62447L18.355 10.6671Z" fill="currentColor"/>
</svg>
