<svg width="24" height="24" viewBox="0 0 24 24" fill="none" xmlns="http://www.w3.org/2000/svg">
    <path d="M2 6.8015C2 4.64836 4.1393 3.30148 5.84844 4.37961L14.1131 9.57964C15.8251 10.6546 15.8251 13.3484 14.1131 14.4234L5.84844 19.6235C4.1393 20.6953 2 19.3516 2 17.1984V6.8015Z" fill="currentColor"/>
    <path d="M19.3206 4H19.9904C20.5234 4 21.0345 4.22576 21.4114 4.62763C21.7883 5.02949 22 5.57454 22 6.14286V17.8571C22 18.4255 21.7883 18.9705 21.4114 19.3724C21.0345 19.7742 20.5234 20 19.9904 20H19.3206C18.7876 20 18.2765 19.7742 17.8996 19.3724C17.5227 18.9705 17.311 18.4255 17.311 17.8571V6.14286C17.311 5.57454 17.5227 5.02949 17.8996 4.62763C18.2765 4.22576 18.7876 4 19.3206 4Z" fill="currentColor"/>
</svg>
