<svg width="84" height="92" fill="none" xmlns="http://www.w3.org/2000/svg">
    <g clip-path="url(#clip0_3867_212456)">
        <rect width="23" height="74" rx="1" transform="matrix(-1 0 0 1 53 9)" fill="url(#paint0_linear_3867_212456)"/>
        <path opacity=".41" transform="rotate(180 17 39)" fill="url(#paint1_linear_3867_212456)" d="M17 39H21V58H17z"/>
        <path opacity=".41" transform="matrix(-1 0 0 1 71 56)" fill="url(#paint2_linear_3867_212456)" d="M0 0H4V15H0z"/>
        <g filter="url(#filter0_i_3867_212456)">
            <g filter="url(#filter1_i_3867_212456)">
                <path d="M51.6118 27H19V60.3582C19 63.4741 21.5259 66 24.6418 66H58.4775L55.45 64.6792C52.9147 63.573 51.2857 61.0589 51.3122 58.2929L51.6118 27Z"
                      fill="#16171A"/>
            </g>
            <path d="M51.6118 27H19V60.3582C19 63.4741 21.5259 66 24.6418 66H58.4775L55.45 64.6792C52.9147 63.573 51.2857 61.0589 51.3122 58.2929L51.6118 27zM59.5074 34.2344H64.9999V58.4667C64.9999 62.2498 62.2217 65.4589 58.4775 66.0005V66.0005"
                  stroke="#0095FAA8"/>
            <path stroke="#0095FA" d="M25.851 35.395H44.447V42.395H25.851zM25.851 53.99L45.106 53.99M25.851 48.973L45.106 48.973"/>
        </g>
    </g>
    <defs>
        <linearGradient id="paint0_linear_3867_212456" x1="7.83" y1="158.355" x2="8.807" y2="3.733" gradientUnits="userSpaceOnUse">
            <stop offset=".191" stop-color="#0095FA"/>
            <stop offset="1" stop-color="#0095FA" stop-opacity="0"/>
        </linearGradient>
        <linearGradient id="paint1_linear_3867_212456" x1="18.362" y1="79.659" x2="18.732" y2="39.961" gradientUnits="userSpaceOnUse">
            <stop offset=".191" stop-color="#0095FA"/>
            <stop offset="1" stop-color="#0095FA" stop-opacity="0"/>
        </linearGradient>
        <linearGradient id="paint2_linear_3867_212456" x1="1.362" y1="32.099" x2="1.593" y2=".757" gradientUnits="userSpaceOnUse">
            <stop offset=".191" stop-color="#0095FA"/>
            <stop offset="1" stop-color="#0095FA" stop-opacity="0"/>
        </linearGradient>
        <filter id="filter0_i_3867_212456" x="18.5" y="26.5" width="47" height="40" filterUnits="userSpaceOnUse" color-interpolation-filters="sRGB">
            <feFlood flood-opacity="0" result="BackgroundImageFix"/>
            <feBlend in="SourceGraphic" in2="BackgroundImageFix" result="shape"/>
            <feColorMatrix in="SourceAlpha" values="0 0 0 0 0 0 0 0 0 0 0 0 0 0 0 0 0 0 127 0" result="hardAlpha"/>
            <feOffset dx="2" dy="3"/>
            <feComposite in2="hardAlpha" operator="arithmetic" k2="-1" k3="1"/>
            <feColorMatrix values="0 0 0 0 1 0 0 0 0 0.672065 0 0 0 0 0 0 0 0 0.12 0"/>
            <feBlend in2="shape" result="effect1_innerShadow_3867_212456"/>
        </filter>
        <filter id="filter1_i_3867_212456" x="18.5" y="26.5" width="40.178" height="40" filterUnits="userSpaceOnUse" color-interpolation-filters="sRGB">
            <feFlood flood-opacity="0" result="BackgroundImageFix"/>
            <feBlend in="SourceGraphic" in2="BackgroundImageFix" result="shape"/>
            <feColorMatrix in="SourceAlpha" values="0 0 0 0 0 0 0 0 0 0 0 0 0 0 0 0 0 0 127 0" result="hardAlpha"/>
            <feOffset dx="2" dy="3"/>
            <feComposite in2="hardAlpha" operator="arithmetic" k2="-1" k3="1"/>
            <feColorMatrix values="0 0 0 0 1 0 0 0 0 1 0 0 0 0 1 0 0 0 0.11 0"/>
            <feBlend in2="shape" result="effect1_innerShadow_3867_212456"/>
        </filter>
        <clipPath id="clip0_3867_212456">
            <path fill="#fff" d="M0 0H84V92H0z"/>
        </clipPath>
    </defs>
</svg>