<svg xmlns="http://www.w3.org/2000/svg" width="40" height="40" fill="none">
    <path fill-rule="evenodd" clip-rule="evenodd"
          d="M16.864 4.525a1.002 1.002 0 0 0-.868-.505H8.004c-.358 0-.69.192-.868.505l-3.996 6.97c-.18.313-.18.698 0 1.01l3.996 6.97c.179.313.51.505.868.505h7.992c.358 0 .69-.192.868-.505l3.996-6.97c.18-.313.18-.698 0-1.01l-3.996-6.97ZM5.4 3.515A3.005 3.005 0 0 1 8.004 2h7.992c1.075 0 2.068.577 2.605 1.515l3.996 6.97a3.048 3.048 0 0 1 0 3.03l-3.996 6.97A3.005 3.005 0 0 1 15.996 22H8.004A3.005 3.005 0 0 1 5.4 20.485l-3.996-6.97a3.048 3.048 0 0 1 0-3.03l3.996-6.97Zm4.576 8.465c0-1.115.898-2.02 2.005-2.02 1.108 0 2.006.905 2.006 2.02 0 1.116-.898 2.02-2.006 2.02a2.013 2.013 0 0 1-2.005-2.02Zm2.005-4.04c-2.215 0-4.011 1.809-4.011 4.04s1.796 4.04 4.011 4.04 4.011-1.809 4.011-4.04-1.796-4.04-4.01-4.04Z"
          fill="currentColor"></path>
</svg>